<svg width="123" height="123" viewBox="0 0 123 123" fill="none" xmlns="http://www.w3.org/2000/svg">
<g clip-path="url(#clip0_0_728)">
<path d="M61.5 0C77.8108 0 93.4536 6.47945 104.987 18.0129C116.521 29.5464 123 45.1892 123 61.5C123 77.8108 116.521 93.4536 104.987 104.987C93.4536 116.521 77.8108 123 61.5 123C45.1892 123 29.5464 116.521 18.0129 104.987C6.47945 93.4536 0 77.8108 0 61.5C0 45.1892 6.47945 29.5464 18.0129 18.0129C29.5464 6.47945 45.1892 0 61.5 0ZM11.5312 61.5C11.5312 74.7525 16.7958 87.4623 26.1668 96.8332C35.5377 106.204 48.2475 111.469 61.5 111.469C74.7525 111.469 87.4623 106.204 96.8332 96.8332C106.204 87.4623 111.469 74.7525 111.469 61.5C111.469 48.2475 106.204 35.5377 96.8332 26.1668C87.4623 16.7958 74.7525 11.5312 61.5 11.5312C48.2475 11.5312 35.5377 16.7958 26.1668 26.1668C16.7958 35.5377 11.5312 48.2475 11.5312 61.5ZM49.0386 40.1826L81.8181 59.8549C82.1013 60.026 82.3356 60.2673 82.4983 60.5555C82.6609 60.8437 82.7464 61.1691 82.7464 61.5C82.7464 61.8309 82.6609 62.1563 82.4983 62.4445C82.3356 62.7327 82.1013 62.974 81.8181 63.1451L49.0386 82.8174C48.7471 82.993 48.4142 83.0881 48.0739 83.0929C47.7337 83.0977 47.3982 83.012 47.1019 82.8447C46.8056 82.6774 46.559 82.4344 46.3874 82.1406C46.2157 81.8467 46.1252 81.5126 46.125 81.1723V41.8354C46.1238 41.4944 46.2134 41.1593 46.3845 40.8644C46.5556 40.5695 46.802 40.3254 47.0986 40.1572C47.3951 39.989 47.7311 39.9026 48.072 39.9071C48.4129 39.9116 48.7465 40.0066 49.0386 40.1826Z" fill="white"/>
</g>
<defs>
<clipPath id="clip0_0_728">
<rect width="123" height="123" fill="white"/>
</clipPath>
</defs>
</svg>
