<svg width="125" height="124" viewBox="0 0 125 124" fill="none" xmlns="http://www.w3.org/2000/svg">
<rect x="0.5" width="124" height="124" rx="62" fill="#121212"/>
<path d="M62.5 88L61.0455 59.1111L50.8636 56.2222H30.5V50.4445H47.9545L68.3182 36L72.1 40.4056L60.0273 49H68.3182L91.0091 36L94.5 40.0445L69.7727 59.1111L68.3182 88H62.5ZM45.0455 47.5556C43.4455 47.5556 42.0762 46.9903 40.9378 45.8598C39.7994 44.7293 39.2292 43.3686 39.2273 41.7778C39.2253 40.187 39.7955 38.8273 40.9378 37.6987C42.0801 36.5701 43.4493 36.0039 45.0455 36C46.6416 35.9962 48.0118 36.5624 49.156 37.6987C50.3002 38.835 50.8695 40.1947 50.8636 41.7778C50.8578 43.3609 50.2886 44.7216 49.156 45.8598C48.0234 46.998 46.6532 47.5633 45.0455 47.5556Z" fill="white"/>
</svg>
