<svg width="124" height="124" viewBox="0 0 124 124" fill="none" xmlns="http://www.w3.org/2000/svg">
<rect width="124" height="124" rx="62" fill="#121212"/>
<path d="M80.527 50.308C80.6585 49.5914 80.6242 48.856 80.4263 48.1533C80.2284 47.4507 79.8718 46.798 79.3815 46.2409C78.8913 45.6838 78.2792 45.2358 77.5882 44.9285C76.8973 44.6212 76.1443 44.462 75.382 44.462H48.6186C47.8563 44.462 47.1033 44.6212 46.4124 44.9285C45.7214 45.2358 45.1093 45.6838 44.6191 46.2409C44.1288 46.798 43.7722 47.4507 43.5743 48.1533C43.3764 48.856 43.3421 49.5914 43.4737 50.308M75.4751 44.462C75.5437 43.854 75.5805 43.5524 75.5805 43.3021C75.5831 42.1463 75.1372 41.0304 74.3287 40.1698C73.5203 39.3091 72.4065 38.7648 71.2024 38.6417C70.9427 38.616 70.6242 38.616 69.9872 38.616H54.0134C53.3764 38.616 53.0555 38.616 52.7958 38.6417C51.5916 38.7648 50.4779 39.3091 49.6694 40.1698C48.861 41.0304 48.415 42.1463 48.4177 43.3021C48.4177 43.5524 48.452 43.8564 48.523 44.462M68.3237 65.779C69.6932 66.5881 69.6932 68.6833 68.3237 69.4924L60.0648 74.3797C58.7345 75.1677 57.1004 74.1458 57.1004 72.523V62.7484C57.1004 61.1279 58.7345 60.106 60.0648 60.8917L68.3237 65.779Z" stroke="white" stroke-width="3"/>
<path d="M38.4416 66.1929C37.3465 58.7942 36.8001 55.0972 39.1227 52.7003C41.4453 50.3081 45.5808 50.3081 53.847 50.3081H70.154C78.4201 50.3081 82.5557 50.3081 84.8783 52.7026C87.2008 55.0972 86.652 58.7942 85.5593 66.1929L84.5255 73.2082C83.668 79.0074 83.2392 81.9094 81.0416 83.6469C78.844 85.3843 75.6027 85.3843 69.1176 85.3843H54.8833C48.4007 85.3843 45.157 85.3843 42.9593 83.6469C40.7617 81.9094 40.333 79.0098 39.4755 73.2082L38.4416 66.1929Z" stroke="white" stroke-width="3"/>
</svg>
