<svg width="124" height="124" viewBox="0 0 124 124" fill="none" xmlns="http://www.w3.org/2000/svg">
<rect width="124" height="124" rx="62" fill="#121212"/>
<path d="M81.657 37.3108C81.167 36.4555 80.4758 35.7475 79.6502 35.2552C78.8246 34.7628 77.8924 34.5027 76.9435 34.5H47.0565C45.137 34.5 43.3303 35.5768 42.343 37.3108L34.8933 50.3776C34.6355 50.8275 34.4995 51.343 34.5 51.8684C34.511 54.6625 35.4886 57.3566 37.25 59.4468V83.7105C37.25 86.9034 39.7168 89.5 42.75 89.5H81.25C84.2832 89.5 86.75 86.9034 86.75 83.7105V59.4468C88.5114 57.3566 89.489 54.6625 89.5 51.8684C89.5005 51.343 89.3645 50.8275 89.1067 50.3776L81.657 37.3108ZM83.956 52.595C83.7863 53.9926 83.1388 55.2774 82.1347 56.2091C81.1306 57.1409 79.8386 57.6559 78.5 57.6579C75.4667 57.6579 73 55.0613 73 51.8684C73 51.6716 72.9313 51.4979 72.8927 51.3126L72.9478 51.3011L70.855 40.2895H76.9435L83.956 52.595ZM58.7523 40.2895H65.245L67.4808 52.0566C67.3845 55.1597 64.97 57.6579 62 57.6579C59.03 57.6579 56.6155 55.1597 56.5193 52.0566L58.7523 40.2895ZM47.0565 40.2895H53.145L51.055 51.3011L51.11 51.3126C51.0688 51.4979 51 51.6716 51 51.8684C51 55.0613 48.5332 57.6579 45.5 57.6579C44.1614 57.6559 42.8694 57.1409 41.8653 56.2091C40.8612 55.2774 40.2137 53.9926 40.044 52.595L47.0565 40.2895ZM56.5 83.7105V75.0263H67.5V83.7105H56.5ZM73 83.7105V75.0263C73 71.8334 70.5332 69.2368 67.5 69.2368H56.5C53.4668 69.2368 51 71.8334 51 75.0263V83.7105H42.75V63.0363C43.6328 63.2766 44.543 63.4474 45.5 63.4474C47.0615 63.4482 48.6052 63.0983 50.0279 62.4209C51.4506 61.7434 52.7196 60.7542 53.75 59.5192C55.7657 61.9276 58.7192 63.4474 62 63.4474C65.2808 63.4474 68.2342 61.9276 70.25 59.5192C71.2804 60.7542 72.5494 61.7434 73.9721 62.4209C75.3948 63.0983 76.9385 63.4482 78.5 63.4474C79.457 63.4474 80.3672 63.2766 81.25 63.0363V83.7105H73Z" fill="white"/>
</svg>
