<svg width="125" height="124" viewBox="0 0 125 124" fill="none" xmlns="http://www.w3.org/2000/svg">
<rect x="0.5" width="124" height="124" rx="62" fill="#121212"/>
<path d="M44.3636 84V78.8235H48.5091L53.6261 61.8059C53.9716 60.6843 54.609 59.7896 55.5382 59.1219C56.4675 58.4541 57.4926 58.1194 58.6136 58.1176H66.3864C67.5091 58.1176 68.5351 58.4524 69.4644 59.1219C70.3936 59.7914 71.0301 60.686 71.3739 61.8059L76.4909 78.8235H80.6364V84H44.3636ZM53.95 78.8235H71.05L66.3864 63.2941H58.6136L53.95 78.8235ZM59.9091 52.9412V40H65.0909V52.9412H59.9091ZM75.325 59.3471L71.633 55.6588L80.8307 46.5353L84.458 50.1588L75.325 59.3471ZM78.0455 71.0588V65.8824H91V71.0588H78.0455ZM49.675 59.3471L40.542 50.1588L44.1693 46.5353L53.367 55.6588L49.675 59.3471ZM34 71.0588V65.8824H46.9545V71.0588H34Z" fill="white"/>
</svg>
