<svg width="124" height="124" viewBox="0 0 124 124" fill="none" xmlns="http://www.w3.org/2000/svg">
<rect width="124" height="124" rx="62" fill="#121212"/>
<path d="M71.3003 71.3014C71.3003 72.5348 71.7902 73.7175 72.6623 74.5896C73.5344 75.4617 74.7172 75.9516 75.9505 75.9516C77.1838 75.9516 78.3666 75.4617 79.2387 74.5896C80.1107 73.7175 80.6007 72.5348 80.6007 71.3014C80.6007 70.0681 80.1107 68.8853 79.2387 68.0133C78.3666 67.1412 77.1838 66.6513 75.9505 66.6513C74.7172 66.6513 73.5344 67.1412 72.6623 68.0133C71.7902 68.8853 71.3003 70.0681 71.3003 71.3014Z" stroke="white" stroke-width="5" stroke-linecap="round" stroke-linejoin="round"/>
<path d="M71.3128 48.9898C54.4853 47.8211 40.6215 45.3224 34.0989 43.4003V71.4905C34.0989 77.6753 34.0989 80.7661 36.021 83.2865C37.943 85.8069 40.5781 86.52 45.8484 87.946C54.3613 90.2463 63.3145 91.6166 71.3314 92.3978C79.6459 93.21 83.8001 93.6162 86.8506 90.8291C89.9012 88.0452 89.9012 83.5655 89.9012 74.6124V68.3687C89.9012 59.6729 89.9012 55.3265 87.3994 52.6294C84.8976 49.9323 80.3714 49.6161 71.3128 48.9898Z" stroke="white" stroke-width="5" stroke-linecap="round" stroke-linejoin="round"/>
<path d="M79.4413 49.6005C80.6101 45.1891 81.6734 37.1628 78.5144 33.1792C76.5148 30.6526 73.5387 30.8975 70.6246 31.1517C55.2975 32.5002 44.4688 35.2376 38.4174 37.0977C35.8132 37.8976 34.0989 40.4397 34.0989 43.2763" stroke="white" stroke-width="5" stroke-linecap="round" stroke-linejoin="round"/>
</svg>
