<svg width="125" height="124" viewBox="0 0 125 124" fill="none" xmlns="http://www.w3.org/2000/svg">
<rect x="0.5" width="124" height="124" rx="62" fill="#121212"/>
<path fill-rule="evenodd" clip-rule="evenodd" d="M51.2885 53.1601C50.4775 53.1601 49.6998 52.85 49.1263 52.2978C48.5529 51.7457 48.2308 50.9969 48.2308 50.2161V47.2839C46.6089 47.2839 45.0534 47.9042 43.9065 49.0084C42.7597 50.1127 42.1154 51.6103 42.1154 53.1719V57.0972H82.8846V53.1719C82.8846 51.6103 82.2403 50.1127 81.0935 49.0084C79.9466 47.9042 78.3911 47.2839 76.7692 47.2839V50.2279C76.7692 51.0087 76.4471 51.7575 75.8736 52.3096C75.3002 52.8617 74.5225 53.1719 73.7115 53.1719C72.9006 53.1719 72.1229 52.8617 71.5494 52.3096C70.976 51.7575 70.6538 51.0087 70.6538 50.2279V47.2839H54.3462V50.2161C54.3462 50.9969 54.024 51.7457 53.4506 52.2978C52.8771 52.85 52.0994 53.1601 51.2885 53.1601ZM70.6538 41.3959H54.3462V38.444C54.3462 37.6632 54.024 36.9144 53.4506 36.3623C52.8771 35.8102 52.0994 35.5 51.2885 35.5C50.4775 35.5 49.6998 35.8102 49.1263 36.3623C48.5529 36.9144 48.2308 37.6632 48.2308 38.444V41.3959C44.987 41.3959 41.876 42.6366 39.5823 44.845C37.2886 47.0534 36 50.0487 36 53.1719V76.724C36 79.8472 37.2886 82.8424 39.5823 85.0509C41.876 87.2593 44.987 88.5 48.2308 88.5H76.7692C80.013 88.5 83.124 87.2593 85.4177 85.0509C87.7114 82.8424 89 79.8472 89 76.724V53.1719C89 50.0487 87.7114 47.0534 85.4177 44.845C83.124 42.6366 80.013 41.3959 76.7692 41.3959V38.4519C76.7692 37.6711 76.4471 36.9222 75.8736 36.3701C75.3002 35.818 74.5225 35.5079 73.7115 35.5079C72.9006 35.5079 72.1229 35.818 71.5494 36.3701C70.976 36.9222 70.6538 37.6711 70.6538 38.4519V41.3959ZM42.1154 62.9853V76.724C42.1154 78.2856 42.7597 79.7832 43.9065 80.8874C45.0534 81.9916 46.6089 82.612 48.2308 82.612H76.7692C78.3911 82.612 79.9466 81.9916 81.0935 80.8874C82.2403 79.7832 82.8846 78.2856 82.8846 76.724V62.9853H42.1154Z" fill="white"/>
</svg>
