<svg width="124" height="124" viewBox="0 0 124 124" fill="none" xmlns="http://www.w3.org/2000/svg">
<rect width="124" height="124" rx="62" fill="#121212"/>
<path d="M72.8 77.0333V82.5H35V77.0333C35 77.0333 35 66.1 53.9 66.1C72.8 66.1 72.8 77.0333 72.8 77.0333ZM63.35 51.0667C63.35 49.1746 62.7958 47.325 61.7574 45.7518C60.719 44.1786 59.2431 42.9524 57.5164 42.2283C55.7896 41.5042 53.8895 41.3148 52.0564 41.6839C50.2233 42.0531 48.5394 42.9642 47.2178 44.3021C45.8962 45.64 44.9962 47.3446 44.6316 49.2004C44.2669 51.0561 44.4541 52.9797 45.1693 54.7277C45.8846 56.4758 47.0958 57.9699 48.6499 59.0211C50.2039 60.0723 52.031 60.6334 53.9 60.6334C56.4063 60.6334 58.8099 59.6255 60.5822 57.8314C62.3544 56.0373 63.35 53.604 63.35 51.0667ZM72.638 66.1C74.2978 67.4004 75.656 69.0532 76.6169 70.9422C77.5779 72.8311 78.1182 74.9102 78.2 77.0333V82.5H89V77.0333C89 77.0333 89 67.1114 72.638 66.1ZM70.1 41.5001C68.2418 41.4914 66.4247 42.0537 64.889 43.1128C66.5291 45.4326 67.411 48.2139 67.411 51.0667C67.411 53.9196 66.5291 56.7008 64.889 59.0207C66.4247 60.0798 68.2418 60.6421 70.1 60.6334C72.6063 60.6334 75.0099 59.6255 76.7822 57.8314C78.5544 56.0373 79.55 53.604 79.55 51.0667C79.55 48.5295 78.5544 46.0962 76.7822 44.3021C75.0099 42.508 72.6063 41.5001 70.1 41.5001Z" fill="white"/>
</svg>
