<svg width="125" height="124" viewBox="0 0 125 124" fill="none" xmlns="http://www.w3.org/2000/svg">
<rect x="0.5" width="124" height="124" rx="62" fill="#121212"/>
<path d="M86.4258 63.9045C86.0613 68.485 84.3896 72.8646 81.6093 76.5229C78.829 80.1813 75.057 82.9646 70.7414 84.5423C66.4258 86.12 61.748 86.4256 57.2637 85.423C52.7795 84.4204 48.6773 82.1516 45.4446 78.8862C42.2118 75.6208 39.9844 71.496 39.0269 67.002C38.0694 62.5079 38.4221 57.8334 40.043 53.5339C41.664 49.2343 44.4851 45.4905 48.1712 42.7471C51.8573 40.0037 56.2534 38.3761 60.8373 38.0576" stroke="white" stroke-width="4" stroke-linecap="round" stroke-linejoin="round"/>
<path d="M72.8013 66.0242C72.1345 67.7405 71.0504 69.2634 69.6471 70.4554C68.2438 71.6473 66.5655 72.4707 64.764 72.851C62.9626 73.2313 61.0947 73.1566 59.3293 72.6336C57.564 72.1106 55.9568 71.1558 54.6532 69.8555C53.3496 68.5553 52.3907 66.9506 51.8631 65.1866C51.3356 63.4226 51.256 61.5549 51.6317 59.7524C52.0074 57.95 52.8264 56.2696 54.0148 54.8632C55.2031 53.4568 56.7233 52.3689 58.4378 51.6977M62.4994 61.9995L71.7305 52.7685M71.7305 52.7685L79.1153 54.6147L86.5001 47.2298L79.1153 45.3836L77.2691 37.9988L69.8843 45.3836L71.7305 52.7685Z" stroke="white" stroke-width="4" stroke-linecap="round" stroke-linejoin="round"/>
</svg>
