<svg width="124" height="124" viewBox="0 0 124 124" fill="none" xmlns="http://www.w3.org/2000/svg">
<rect width="124" height="124" rx="62" fill="#121212"/>
<path fill-rule="evenodd" clip-rule="evenodd" d="M62.6782 37.1309C61.4301 36.9193 59.7263 36.903 56.655 36.903C51.4538 36.903 47.7557 36.9084 44.9557 37.2829C42.21 37.6491 40.6336 38.341 39.486 39.486C38.3383 40.6336 37.6491 42.2073 37.2829 44.9367C36.9084 47.7259 36.903 51.3995 36.903 56.5763V67.429C36.903 72.6003 36.9084 76.2739 37.2829 79.0631C37.6491 81.7925 38.3383 83.3662 39.486 84.5166C40.6336 85.6615 42.2073 86.3507 44.9367 86.717C47.7259 87.0941 51.3995 87.0968 56.5736 87.0968H67.4263C72.6003 87.0968 76.2767 87.0914 79.0658 86.717C81.7926 86.3507 83.3662 85.6615 84.5139 84.5139C85.6615 83.3662 86.3507 81.7925 86.717 79.0631C87.0914 76.2767 87.0968 72.6003 87.0968 67.4263V66.2406C87.0968 62.0732 87.0697 60.098 86.6247 58.6084H78.1325C75.0584 58.6084 72.5488 58.6084 70.5627 58.3426C68.4926 58.0631 66.6964 57.4608 65.2612 56.0255C63.8259 54.5902 63.2236 52.7968 62.9441 50.7212C62.6782 48.7406 62.6782 46.2282 62.6782 43.1515V37.1309ZM66.748 39.2364V43.0077C66.748 46.2635 66.7534 48.4991 66.9786 50.1786C67.1957 51.8011 67.5863 52.596 68.1398 53.1468C68.6906 53.7003 69.4856 54.091 71.1081 54.3081C72.7875 54.5333 75.0232 54.5387 78.279 54.5387H83.7596C82.7184 53.5473 81.6601 52.574 80.5852 51.6193L69.8437 41.9522C68.8304 41.026 67.7983 40.1205 66.748 39.2364ZM57.0484 32.8333C60.8061 32.8333 63.2344 32.8333 65.4674 33.6879C67.7003 34.5453 69.4964 36.1623 72.2774 38.6666L72.5677 38.9271L83.3065 48.5941L83.6457 48.898C86.8581 51.7875 88.9364 53.6569 90.0515 56.1639C91.1693 58.6708 91.1693 61.4654 91.1666 65.7848V67.5782C91.1666 72.565 91.1666 76.5154 90.7515 79.6057C90.3228 82.7856 89.422 85.3604 87.3925 87.3925C85.3604 89.422 82.7856 90.3228 79.6057 90.7515C76.5127 91.1666 72.565 91.1666 67.5782 91.1666H56.4216C51.4348 91.1666 47.4844 91.1666 44.3941 90.7515C41.2143 90.3228 38.6395 89.422 36.6073 87.3925C34.5778 85.3604 33.6771 82.7856 33.2484 79.6057C32.8333 76.5127 32.8333 72.565 32.8333 67.5782V56.4243C32.8333 51.4375 32.8333 47.4871 33.2484 44.3968C33.6771 41.217 34.5778 38.6422 36.6073 36.61C38.6422 34.5778 41.2224 33.6798 44.4158 33.2511C47.5197 32.836 51.4891 32.836 56.503 32.836H56.655L57.0484 32.8333Z" fill="#CFD6DC"/>
<path fill-rule="evenodd" clip-rule="evenodd" d="M57.9259 68.6202C58.3289 68.9784 58.5732 69.4819 58.6053 70.0201C58.6373 70.5583 58.4545 71.0872 58.0969 71.4907L50.8608 79.6302C50.6699 79.845 50.4357 80.0168 50.1736 80.1345C49.9115 80.2522 49.6274 80.313 49.3401 80.313C49.0528 80.313 48.7687 80.2522 48.5066 80.1345C48.2445 80.0168 48.0103 79.845 47.8193 79.6302L44.2 75.5605C44.0225 75.3606 43.8862 75.1277 43.7988 74.8751C43.7113 74.6226 43.6745 74.3552 43.6904 74.0884C43.7062 73.8216 43.7745 73.5606 43.8913 73.3201C44.008 73.0797 44.171 72.8647 44.3709 72.6872C44.5708 72.5098 44.8037 72.3734 45.0562 72.286C45.3088 72.1986 45.5761 72.1617 45.8429 72.1776C46.1097 72.1935 46.3708 72.2618 46.6112 72.3785C46.8516 72.4953 47.0667 72.6583 47.2442 72.8581L49.3387 75.2186L55.0527 68.7884C55.2303 68.5882 55.4457 68.4251 55.6864 68.3083C55.9272 68.1915 56.1886 68.1233 56.4558 68.1077C56.7229 68.0921 56.9905 68.1293 57.2432 68.2172C57.496 68.3052 57.7262 68.4421 57.9259 68.6202Z" fill="#CFD6DC"/>
</svg>
