<svg width="124" height="124" viewBox="0 0 124 124" fill="none" xmlns="http://www.w3.org/2000/svg">
<rect width="124" height="124" rx="62" fill="#121212"/>
<path d="M63.3655 40.2511C56.0864 40.1894 47.5547 42.6981 37.293 49.9369C37.0551 50.0646 36.9731 50.1358 36.8827 50.2264C36.8458 52.7091 36.8887 55.1941 36.9017 57.6773C41.5091 60.522 48.1731 62.827 52.7924 63.8866C48.3114 70.067 45.427 76.5614 43.2948 82.9135L43.0802 83.5525L48.6343 88.439L49.2151 87.2561C52.5663 80.4323 55.3968 73.4917 59.8372 67.1247C60.6694 67.8245 61.6514 68.4679 62.8857 68.3755C63.4967 68.3298 63.9599 68.0922 64.3385 67.7839L64.7681 67.8016C66.0221 67.8533 67.2463 67.7634 68.3578 67.3756C68.6733 67.2656 68.9782 67.1272 69.2688 66.9622C74.0832 72.7176 76.5557 80.6477 78.2625 86.9159L78.7167 88.5833L85.192 82.1718L84.9459 81.549C82.8258 76.1875 80.7284 69.1297 76.496 63.5827C80.9988 62.3694 85.0909 60.5121 88.6296 58.1733C89.8213 57.3854 89.217 57.7858 90.0347 57.2047L89.8641 50.265C89.3856 49.9667 89.1579 49.8538 88.7305 49.623C82.9657 46.5113 76.4892 42.0721 68.2106 40.6778C66.6093 40.4076 64.9892 40.265 63.3655 40.2511ZM63.3379 42.2663C64.913 42.2831 66.4229 42.4284 67.877 42.6732C75.4003 43.9404 81.4863 47.9534 87.2369 51.1039C86.1648 51.6821 85.0743 52.2252 83.9672 52.7324C78.6857 49.4975 72.973 46.7293 66.5648 45.8581C59.2515 44.8638 51.0943 46.4118 41.888 52.4005C40.9836 51.9816 40.0895 51.5405 39.2067 51.0775C48.8688 44.4261 56.6866 42.1948 63.338 42.2663H63.3379ZM62.4526 47.5957C63.7604 47.5991 65.04 47.6925 66.2942 47.8631C71.8144 48.6135 76.8837 50.8987 81.6795 53.716C78.0879 55.1629 74.4122 56.186 70.6796 56.7662C69.3438 55.2279 67.4302 54.6213 65.5443 54.3831L64.8472 54.2951L64.5473 54.8748C64.0326 54.6572 63.4869 54.4304 63.0198 54.2745C62.534 54.1136 62.1159 53.9753 61.5794 53.9947C59.2922 54.0777 57.8583 55.0749 57.1433 56.0983C56.977 56.3371 56.8348 56.592 56.7188 56.8591C52.5297 56.2672 48.3123 55.1141 44.1021 53.3723C50.8837 49.1796 56.9218 47.5815 62.4526 47.5957ZM87.9566 52.9844L88.0027 56.1421C84.3102 58.6714 79.9339 60.6544 75.0603 61.8571C74.1269 60.8303 73.1001 59.8771 71.9647 59.0206C71.9132 58.8729 71.8568 58.727 71.7955 58.5831C77.3474 57.6329 82.7683 55.7472 87.9566 52.9844ZM38.9527 53.1917C44.773 56.154 50.6599 58.0055 56.5051 58.8169C56.5475 58.9221 56.5952 59.0227 56.6483 59.1187C55.779 60.0856 54.9419 61.0812 54.1385 62.1038C49.2195 61.091 44.1165 59.3111 38.9382 56.6197L38.9527 53.1917ZM61.6519 56.0167C62.369 56.0347 63.0593 56.4331 63.714 56.717C63.1384 58.2111 62.7998 59.7305 62.7319 61.2621L62.7099 61.2493C61.5302 60.5598 60.4155 59.8458 59.5994 59.2166C58.8872 58.6676 58.5134 58.1636 58.4253 58.0667C58.9607 56.334 60.6767 56.0075 61.6519 56.0167ZM66.0021 56.5189C67.5653 56.8033 68.7709 57.3462 69.5648 58.6495C70.2067 59.7037 70.3691 60.5521 70.2917 61.4121C70.2144 62.272 69.8594 63.1733 69.3178 64.1683C68.9665 64.8136 68.4532 65.2002 67.6959 65.4644C67.0928 65.6748 66.3378 65.7747 65.5033 65.7857C64.2786 62.6388 64.5434 59.6432 66.0021 56.5189ZM58.0582 60.5793C58.961 61.2813 59.9956 61.9695 60.8397 62.4868C54.91 69.641 51.6307 77.5802 47.9742 85.1676L45.4296 82.9286C48.0408 75.3214 51.7437 67.6465 58.0582 60.5793ZM72.2606 61.9223C77.7614 67.0465 80.3019 75.1561 82.8321 81.6663L79.7428 84.7253C78.0329 78.6557 75.5447 71.2888 70.7746 65.6302C70.8892 65.4732 70.9935 65.3088 71.087 65.1382C71.6406 64.1211 72.098 63.0681 72.2606 61.9223ZM62.6013 63.5169C62.6846 63.5637 62.7669 63.6082 62.8499 63.6544C62.9559 64.3869 63.1282 65.1206 63.3688 65.8539C63.0212 66.1667 62.6882 66.3613 62.736 66.3578C62.5209 66.3739 61.7572 66.0104 61.0402 65.4706C61.5439 64.8062 62.0644 64.1548 62.6013 63.517V63.5169Z" fill="white"/>
</svg>
