<svg width="125" height="124" viewBox="0 0 125 124" fill="none" xmlns="http://www.w3.org/2000/svg">
<rect x="0.5" width="124" height="124" rx="62" fill="#121212"/>
<path fill-rule="evenodd" clip-rule="evenodd" d="M63.1783 37.131C61.9303 36.9194 60.2264 36.9031 57.1551 36.9031C51.9539 36.9031 48.2559 36.9085 45.4559 37.2829C42.7101 37.6492 41.1338 38.3411 39.9861 39.486C38.8384 40.6337 38.1493 42.2074 37.783 44.9368C37.4086 47.726 37.4031 51.3996 37.4031 56.5764V67.4291C37.4031 72.6004 37.4086 76.274 37.783 79.0632C38.1493 81.7926 38.8384 83.3663 39.9861 84.5167C41.1338 85.6616 42.7074 86.3508 45.4369 86.7171C48.226 87.0942 51.8997 87.0969 57.0737 87.0969H67.9264C73.1004 87.0969 76.7768 87.0915 79.5659 86.7171C82.2927 86.3508 83.8663 85.6616 85.014 84.514C86.1617 83.3663 86.8508 81.7926 87.2171 79.0632C87.5915 76.2767 87.5969 72.6004 87.5969 67.4264V66.2407C87.5969 62.0733 87.5698 60.0981 87.1248 58.6085H78.6326C75.5586 58.6085 73.0489 58.6085 71.0628 58.3426C68.9927 58.0632 67.1965 57.4609 65.7613 56.0256C64.326 54.5903 63.7237 52.7969 63.4442 50.7213C63.1783 48.7407 63.1783 46.2283 63.1783 43.1516V37.131ZM67.2481 39.2364V43.0078C67.2481 46.2636 67.2535 48.4992 67.4787 50.1787C67.6958 51.8012 68.0865 52.5961 68.64 53.1469C69.1907 53.7004 69.9857 54.0911 71.6082 54.3081C73.2876 54.5333 75.5233 54.5388 78.7791 54.5388H84.2597C83.2186 53.5473 82.1603 52.5741 81.0853 51.6194L70.3438 41.9523C69.3305 41.0261 68.2984 40.1206 67.2481 39.2364ZM57.5485 32.8333C61.3062 32.8333 63.7345 32.8333 65.9675 33.688C68.2004 34.5453 69.9966 36.1624 72.7776 38.6667L73.0679 38.9271L83.8066 48.5942L84.1458 48.8981C87.3582 51.7876 89.4365 53.657 90.5516 56.164C91.6694 58.6709 91.6694 61.4655 91.6667 65.7849V67.5783C91.6667 72.5651 91.6667 76.5155 91.2516 79.6058C90.8229 82.7857 89.9221 85.3605 87.8927 87.3926C85.8605 89.4221 83.2857 90.3229 80.1059 90.7515C77.0128 91.1667 73.0652 91.1667 68.0783 91.1667H56.9217C51.9349 91.1667 47.9845 91.1667 44.8942 90.7515C41.7144 90.3229 39.1396 89.4221 37.1074 87.3926C35.0779 85.3605 34.1772 82.7857 33.7485 79.6058C33.3334 76.5128 33.3334 72.5651 33.3334 67.5783V56.4244C33.3334 51.4376 33.3334 47.4872 33.7485 44.3969C34.1772 41.2171 35.0779 38.6422 37.1074 36.6101C39.1423 34.5779 41.7225 33.6798 44.9159 33.2512C48.0198 32.836 51.9892 32.836 57.0031 32.836H57.1551L57.5485 32.8333Z" fill="white"/>
<path fill-rule="evenodd" clip-rule="evenodd" d="M58.4261 68.6203C58.829 68.9785 59.0734 69.482 59.1054 70.0202C59.1375 70.5584 58.9546 71.0873 58.597 71.4908L51.3609 79.6304C51.17 79.8451 50.9358 80.0169 50.6737 80.1346C50.4116 80.2523 50.1275 80.3132 49.8402 80.3132C49.5529 80.3132 49.2688 80.2523 49.0067 80.1346C48.7446 80.0169 48.5104 79.8451 48.3195 79.6304L44.7001 75.5606C44.5227 75.3607 44.3863 75.1278 44.2989 74.8753C44.2114 74.6227 44.1746 74.3554 44.1905 74.0886C44.2064 73.8218 44.2746 73.5607 44.3914 73.3203C44.5082 73.0798 44.6711 72.8648 44.871 72.6873C45.0709 72.5099 45.3038 72.3736 45.5563 72.2861C45.8089 72.1987 46.0762 72.1619 46.343 72.1777C46.6099 72.1936 46.8709 72.2619 47.1113 72.3786C47.3518 72.4954 47.5668 72.6584 47.7443 72.8583L49.8388 75.2187L55.5528 68.7885C55.7304 68.5884 55.9458 68.4252 56.1866 68.3084C56.4273 68.1916 56.6888 68.1235 56.9559 68.1078C57.223 68.0922 57.4906 68.1294 57.7434 68.2174C57.9961 68.3053 58.2263 68.4422 58.4261 68.6203Z" fill="white"/>
</svg>
