<svg width="124" height="124" viewBox="0 0 124 124" fill="none" xmlns="http://www.w3.org/2000/svg">
<rect width="124" height="124" rx="62" fill="#121212"/>
<path d="M86.7733 36.4672C83.5502 33.135 79.7114 30.4932 75.4807 28.6962C71.2499 26.8991 66.7121 25.9826 62.1318 26.0002C42.9399 26.0002 27.2988 42.0112 27.2813 61.6671C27.2813 67.9626 28.8898 74.0871 31.9265 79.5096L27 98L45.4756 93.041C50.5845 95.8951 56.3121 97.3883 62.1318 97.3835H62.1494C81.3458 97.3835 96.9824 81.3726 97 61.6986C97.0039 57.0099 96.1019 52.3667 94.346 48.0364C92.5902 43.7061 90.0194 39.7742 86.7733 36.4672ZM62.1318 91.3445C56.9424 91.3403 51.849 89.9106 47.383 87.2045L46.3282 86.5565L35.3677 89.4995L38.2946 78.5511L37.609 77.4216C34.7076 72.6981 33.1731 67.2292 33.1834 61.6491C33.1834 45.3322 46.1788 32.0212 62.1494 32.0212C65.9541 32.0142 69.7226 32.7785 73.2375 34.2698C76.7524 35.7612 79.9443 37.9502 82.6291 40.7107C85.3226 43.4609 87.458 46.7296 88.9123 50.3286C90.3665 53.9276 91.1107 57.7857 91.1022 61.6806C91.0846 78.0561 78.0893 91.3445 62.1318 91.3445ZM78.0189 69.1416C77.1532 68.6961 72.8771 66.5406 72.0728 66.2346C71.273 65.9421 70.6885 65.7891 70.1171 66.6801C69.5326 67.5666 67.8626 69.5871 67.3616 70.1676C66.8606 70.7661 66.342 70.8336 65.4719 70.3926C64.6061 69.9426 61.7978 69.0066 58.4754 65.9601C55.8825 63.5976 54.1465 60.6726 53.6279 59.7861C53.1269 58.8951 53.5796 58.4181 54.0147 57.9726C54.397 57.5766 54.8805 56.9286 55.3155 56.4156C55.755 55.9026 55.9 55.5246 56.1857 54.9306C56.4714 54.3276 56.3351 53.8147 56.1198 53.3692C55.9 52.9237 54.1641 48.5272 53.4302 46.7542C52.727 45.0037 52.0107 45.2467 51.4745 45.2242C50.9735 45.1927 50.389 45.1927 49.8045 45.1927C49.3631 45.2042 48.9289 45.3088 48.5288 45.5001C48.1288 45.6913 47.7716 45.9651 47.4797 46.3042C46.6798 47.1952 44.4429 49.3507 44.4429 53.7472C44.4429 58.1436 47.5632 62.3691 48.0026 62.9676C48.4333 63.5661 54.1289 72.5616 62.8702 76.4316C64.9357 77.3541 66.5618 77.8986 67.8319 78.3126C69.9194 78.9966 71.8047 78.8931 73.3077 78.6726C74.9778 78.4116 78.454 76.5126 79.188 74.4291C79.9087 72.3411 79.9087 70.5591 79.689 70.1856C79.4736 69.8076 78.8891 69.5871 78.0189 69.1416Z" fill="white"/>
</svg>
