<svg width="74" height="95" viewBox="0 0 74 95" fill="none" xmlns="http://www.w3.org/2000/svg">
<path d="M21.1429 0C18.3391 0 15.6503 1.24038 13.6677 3.44826C11.6852 5.65615 10.5714 8.65069 10.5714 11.7731V29.9331C11.9833 29.3757 13.5081 29.2751 14.9691 29.643C16.4302 30.0109 17.7678 30.8322 18.8271 32.0118C19.8863 33.1914 20.6238 34.6811 20.9541 36.3083C21.2844 37.9354 21.1941 39.6335 20.6936 41.2059H23.7857C25.8885 41.2059 27.9052 42.1362 29.3921 43.7921C30.879 45.448 31.7143 47.6939 31.7143 50.0357C31.7143 52.3775 30.879 54.6234 29.3921 56.2794C27.9052 57.9353 25.8885 58.8656 23.7857 58.8656H20.6936C21.1941 60.4379 21.2844 62.136 20.9541 63.7632C20.6238 65.3904 19.8863 66.88 18.8271 68.0596C17.7678 69.2393 16.4302 70.0606 14.9691 70.4285C13.5081 70.7963 11.9833 70.6957 10.5714 70.1383V82.4118C10.5714 85.5342 11.6852 88.5287 13.6677 90.7366C15.6503 92.9445 18.3391 94.1849 21.1429 94.1849H52.8571C55.6609 94.1849 58.3497 92.9445 60.3323 90.7366C62.3148 88.5287 63.4286 85.5342 63.4286 82.4118V70.1383C62.0167 70.6957 60.4919 70.7963 59.0308 70.4285C57.5698 70.0606 56.2322 69.2393 55.1729 68.0596C54.1137 66.88 53.3762 65.3904 53.0459 63.7632C52.7156 62.136 52.8059 60.4379 53.3064 58.8656H50.2143C48.1115 58.8656 46.0948 57.9353 44.6079 56.2794C43.121 54.6234 42.2857 52.3775 42.2857 50.0357C42.2857 47.6939 43.121 45.448 44.6079 43.7921C46.0948 42.1362 48.1115 41.2059 50.2143 41.2059H53.3064C52.8059 39.6335 52.7156 37.9354 53.0459 36.3083C53.3762 34.6811 54.1137 33.1914 55.1729 32.0118C56.2322 30.8322 57.5698 30.0109 59.0308 29.643C60.4919 29.2751 62.0167 29.3757 63.4286 29.9331V11.7731C63.4286 8.65069 62.3148 5.65615 60.3323 3.44826C58.3497 1.24038 55.6609 0 52.8571 0H21.1429ZM62.6569 36.1847C62.1613 35.632 61.4889 35.3212 60.7876 35.3206C60.0863 35.3201 59.4135 35.6298 58.9172 36.1817C58.421 36.7336 58.1419 37.4824 58.1414 38.2635C58.1409 39.0445 58.419 39.7938 58.9146 40.3465L64.9773 47.0924H50.2143C49.5134 47.0924 48.8411 47.4025 48.3455 47.9545C47.8499 48.5065 47.5714 49.2551 47.5714 50.0357C47.5714 50.8163 47.8499 51.565 48.3455 52.1169C48.8411 52.6689 49.5134 52.979 50.2143 52.979H64.9773L58.9199 59.725C58.4236 60.2769 58.1445 61.0257 58.144 61.8068C58.1435 62.5878 58.4217 63.3371 58.9172 63.8897C59.4128 64.4424 60.0852 64.7532 60.7865 64.7538C61.4878 64.7543 62.1606 64.4446 62.6569 63.8927L73.2283 52.1196L73.2389 52.1019C73.7226 51.5556 73.9957 50.8206 74 50.0534V50.0181C73.9957 49.2451 73.7185 48.505 73.2283 47.9578L62.6569 36.1847ZM9.02271 47.0924L15.0801 40.3465L15.1436 40.2758C15.3851 39.9979 15.5752 39.6697 15.7028 39.31C15.8305 38.9503 15.8933 38.5662 15.8877 38.1794C15.882 37.7927 15.8081 37.411 15.6699 37.0561C15.5318 36.7012 15.3323 36.3801 15.0828 36.1111C14.8332 35.8421 14.5386 35.6304 14.2156 35.4882C13.8926 35.346 13.5476 35.2761 13.2004 35.2824C12.8531 35.2887 12.5104 35.3711 12.1917 35.5249C11.873 35.6787 11.5847 35.9009 11.3431 36.1788L0.771714 47.9519L0.761143 47.9695C0.27738 48.5158 0.00427061 49.2508 0 50.0181V50.0534C0.00432551 50.8264 0.281524 51.5664 0.771714 52.1137L11.3431 63.8868C11.8387 64.4395 12.5111 64.7503 13.2124 64.7508C13.9137 64.7514 14.5865 64.4416 15.0828 63.8897C15.579 63.3378 15.8581 62.589 15.8586 61.808C15.8591 61.0269 15.581 60.2777 15.0854 59.725L9.02271 52.979H23.7857C24.4866 52.979 25.1589 52.6689 25.6545 52.1169C26.1501 51.565 26.4286 50.8163 26.4286 50.0357C26.4286 49.2551 26.1501 48.5065 25.6545 47.9545C25.1589 47.4025 24.4866 47.0924 23.7857 47.0924H9.02271Z" fill="white"/>
</svg>
