<svg width="125" height="124" viewBox="0 0 125 124" fill="none" xmlns="http://www.w3.org/2000/svg">
<rect x="0.5" width="124" height="124" rx="62" fill="#121212"/>
<path fill-rule="evenodd" clip-rule="evenodd" d="M45.3955 49.3165C45.5948 46.0662 46.9967 43.0159 49.3158 40.7865C51.6348 38.5571 54.6967 37.3162 57.8782 37.3165H59.5312V35.038C59.5312 34.2323 59.8439 33.4595 60.4005 32.8898C60.9571 32.3201 61.7119 32 62.4991 32C63.2862 32 64.041 32.3201 64.5976 32.8898C65.1542 33.4595 65.4669 34.2323 65.4669 35.038V37.3165H67.1199C70.3014 37.3162 73.3633 38.5571 75.6823 40.7865C78.0014 43.0159 79.4033 46.0662 79.6026 49.3165L80.2585 60.0527C80.512 64.1455 81.8544 68.0893 84.1404 71.4572C84.6134 72.1531 84.9024 72.9624 84.9793 73.8065C85.0562 74.6506 84.9184 75.5007 84.5793 76.2741C84.2402 77.0475 83.7113 77.718 83.0442 78.2202C82.377 78.7224 81.5942 79.0394 80.7719 79.1403L70.6606 80.3797V83.6456C70.6606 85.8613 69.8007 87.9863 68.2701 89.553C66.7395 91.1198 64.6636 92 62.4991 92C60.3345 92 58.2586 91.1198 56.728 89.553C55.1974 87.9863 54.3375 85.8613 54.3375 83.6456V80.3797L44.2262 79.1372C43.4044 79.0361 42.6221 78.7191 41.9553 78.217C41.2886 77.715 40.76 77.0449 40.421 76.272C40.082 75.499 39.944 74.6494 40.0206 73.8058C40.0971 72.9621 40.3855 72.1531 40.8577 71.4572C43.1437 68.0893 44.4861 64.1455 44.7396 60.0527L45.3955 49.3165ZM57.8782 41.8734C55.8291 41.8732 53.857 42.6723 52.3633 44.1082C50.8696 45.544 49.9667 47.5086 49.8383 49.602L49.1854 60.3382C48.8803 65.262 47.2648 70.0065 44.5141 74.0577C44.4798 74.108 44.4589 74.1666 44.4533 74.2276C44.4477 74.2887 44.4577 74.3502 44.4822 74.4061C44.5067 74.4621 44.5449 74.5106 44.5931 74.547C44.6414 74.5833 44.698 74.6063 44.7574 74.6137L55.8482 75.9777C60.2672 76.5185 64.7308 76.5185 69.1499 75.9777L80.2407 74.6137C80.3001 74.6063 80.3567 74.5833 80.405 74.547C80.4532 74.5106 80.4914 74.4621 80.5159 74.4061C80.5404 74.3502 80.5504 74.2887 80.5448 74.2276C80.5392 74.1666 80.5183 74.108 80.484 74.0577C77.7343 70.0062 76.1199 65.2617 75.8157 60.3382L75.1598 49.602C75.0314 47.5086 74.1285 45.544 72.6348 44.1082C71.1411 42.6723 69.169 41.8732 67.1199 41.8734H57.8782ZM62.4991 87.443C60.4513 87.443 58.7893 85.7418 58.7893 83.6456V81.3671H66.2088V83.6456C66.2088 85.7418 64.5468 87.443 62.4991 87.443Z" fill="#DFDFDF"/>
</svg>
