<svg width="125" height="124" viewBox="0 0 125 124" fill="none" xmlns="http://www.w3.org/2000/svg">
<rect x="0.5" width="124" height="124" rx="62" fill="#121212"/>
<path d="M48.7 47H40.3C39.8226 47 39.3648 47.1896 39.0272 47.5272C38.6896 47.8648 38.5 48.3226 38.5 48.8V75.1999C38.5 75.4363 38.5466 75.6704 38.637 75.8887C38.7275 76.1071 38.8601 76.3056 39.0272 76.4727C39.1944 76.6398 39.3928 76.7724 39.6112 76.8629C39.8296 76.9534 40.0636 76.9999 40.3 76.9999H48.7C48.9363 76.9999 49.1704 76.9534 49.3888 76.8629C49.6072 76.7724 49.8056 76.6398 49.9728 76.4727C50.1399 76.3056 50.2725 76.1071 50.3629 75.8887C50.4534 75.6704 50.5 75.4363 50.5 75.1999V48.8C50.5 48.3226 50.3103 47.8648 49.9728 47.5272C49.6352 47.1896 49.1774 47 48.7 47ZM84.6999 47H76.2999C75.8225 47 75.3647 47.1896 75.0271 47.5272C74.6895 47.8648 74.4999 48.3226 74.4999 48.8V75.1999C74.4999 75.4363 74.5464 75.6704 74.6369 75.8887C74.7274 76.1071 74.86 76.3056 75.0271 76.4727C75.1942 76.6398 75.3927 76.7724 75.6111 76.8629C75.8294 76.9534 76.0635 76.9999 76.2999 76.9999H84.6999C84.9362 76.9999 85.1703 76.9534 85.3887 76.8629C85.6071 76.7724 85.8055 76.6398 85.9727 76.4727C86.1398 76.3056 86.2724 76.1071 86.3628 75.8887C86.4533 75.6704 86.4999 75.4363 86.4999 75.1999V48.8C86.4999 48.3226 86.3102 47.8648 85.9727 47.5272C85.6351 47.1896 85.1772 47 84.6999 47Z" stroke="white" stroke-width="3" stroke-linecap="round" stroke-linejoin="round"/>
<path d="M50.4999 62H74.4999M29.5 69.1999V54.8C29.5 54.3226 29.6896 53.8648 30.0272 53.5272C30.3648 53.1896 30.8226 53 31.3 53H36.7C37.1774 53 37.6352 53.1896 37.9728 53.5272C38.3103 53.8648 38.5 54.3226 38.5 54.8V69.1999C38.5 69.6773 38.3103 70.1352 37.9728 70.4727C37.6352 70.8103 37.1774 70.9999 36.7 70.9999H31.3C30.8226 70.9999 30.3648 70.8103 30.0272 70.4727C29.6896 70.1352 29.5 69.6773 29.5 69.1999ZM95.4998 69.1999V54.8C95.4998 54.3226 95.3102 53.8648 94.9726 53.5272C94.635 53.1896 94.1772 53 93.6998 53H88.2998C87.8224 53 87.3646 53.1896 87.027 53.5272C86.6895 53.8648 86.4998 54.3226 86.4998 54.8V69.1999C86.4998 69.6773 86.6895 70.1352 87.027 70.4727C87.3646 70.8103 87.8224 70.9999 88.2998 70.9999H93.6998C94.1772 70.9999 94.635 70.8103 94.9726 70.4727C95.3102 70.1352 95.4998 69.6773 95.4998 69.1999Z" stroke="white" stroke-width="3" stroke-linecap="round" stroke-linejoin="round"/>
</svg>
