<svg width="125" height="124" viewBox="0 0 125 124" fill="none" xmlns="http://www.w3.org/2000/svg">
<rect x="0.5" width="124" height="124" rx="62" fill="#121212"/>
<path d="M73.3 77.0333V82.5H35.5V77.0333C35.5 77.0333 35.5 66.1 54.4 66.1C73.3 66.1 73.3 77.0333 73.3 77.0333ZM63.85 51.0667C63.85 49.1746 63.2958 47.325 62.2574 45.7518C61.219 44.1786 59.7431 42.9524 58.0164 42.2283C56.2896 41.5042 54.3895 41.3148 52.5564 41.6839C50.7233 42.0531 49.0394 42.9642 47.7178 44.3021C46.3962 45.64 45.4962 47.3446 45.1316 49.2004C44.7669 51.0561 44.9541 52.9797 45.6693 54.7277C46.3846 56.4758 47.5958 57.9699 49.1499 59.0211C50.7039 60.0723 52.531 60.6334 54.4 60.6334C56.9063 60.6334 59.3099 59.6255 61.0822 57.8314C62.8544 56.0373 63.85 53.604 63.85 51.0667ZM73.138 66.1C74.7978 67.4004 76.156 69.0532 77.1169 70.9422C78.0779 72.8311 78.6182 74.9102 78.7 77.0333V82.5H89.5V77.0333C89.5 77.0333 89.5 67.1114 73.138 66.1ZM70.6 41.5001C68.7418 41.4914 66.9247 42.0537 65.389 43.1128C67.0291 45.4326 67.911 48.2139 67.911 51.0667C67.911 53.9196 67.0291 56.7008 65.389 59.0207C66.9247 60.0798 68.7418 60.6421 70.6 60.6334C73.1063 60.6334 75.5099 59.6255 77.2822 57.8314C79.0544 56.0373 80.05 53.604 80.05 51.0667C80.05 48.5295 79.0544 46.0962 77.2822 44.3021C75.5099 42.508 73.1063 41.5001 70.6 41.5001Z" fill="white"/>
</svg>
