<svg width="124" height="124" viewBox="0 0 124 124" fill="none" xmlns="http://www.w3.org/2000/svg">
<rect width="124" height="124" rx="62" fill="#121212"/>
<path d="M58.8964 32.7842C59.2128 32.2413 59.666 31.7909 60.2108 31.4778C60.7555 31.1648 61.3729 31 62.0012 31C62.6296 31 63.2469 31.1648 63.7917 31.4778C64.3365 31.7909 64.7896 32.2413 65.106 32.7842L73.1411 46.5775L88.7455 49.9583C89.3593 50.0917 89.9275 50.3836 90.3933 50.805C90.8591 51.2264 91.2063 51.7626 91.4003 52.36C91.5943 52.9574 91.6283 53.5952 91.4989 54.2099C91.3696 54.8246 91.0814 55.3946 90.663 55.8631L80.0263 67.7677L81.6361 83.651C81.6996 84.2764 81.598 84.9076 81.3413 85.4814C81.0846 86.0553 80.6818 86.5518 80.1732 86.9213C79.6646 87.2908 79.068 87.5204 78.4429 87.5872C77.8179 87.654 77.1862 87.5557 76.611 87.302L62.0012 80.8624L47.3915 87.302C46.8163 87.5557 46.1846 87.654 45.5595 87.5872C44.9344 87.5204 44.3378 87.2908 43.8292 86.9213C43.3206 86.5518 42.9179 86.0553 42.6612 85.4814C42.4045 84.9076 42.3028 84.2764 42.3663 83.651L43.9762 67.7677L33.3394 55.866C32.9203 55.3975 32.6315 54.8272 32.5017 54.2122C32.372 53.5971 32.4058 52.9588 32.5998 52.3609C32.7939 51.763 33.1414 51.2265 33.6076 50.8049C34.0739 50.3833 34.6426 50.0914 35.2569 49.9583L50.8614 46.5775L58.8964 32.7842Z" fill="white"/>
</svg>
