<svg width="125" height="124" viewBox="0 0 125 124" fill="none" xmlns="http://www.w3.org/2000/svg">
<rect x="0.5" width="124" height="124" rx="62" fill="#121212"/>
<path d="M82.157 37.3108C81.667 36.4555 80.9758 35.7475 80.1502 35.2552C79.3246 34.7628 78.3924 34.5027 77.4435 34.5H47.5565C45.637 34.5 43.8303 35.5768 42.843 37.3108L35.3933 50.3776C35.1355 50.8275 34.9995 51.343 35 51.8684C35.011 54.6625 35.9886 57.3566 37.75 59.4468V83.7105C37.75 86.9034 40.2168 89.5 43.25 89.5H81.75C84.7832 89.5 87.25 86.9034 87.25 83.7105V59.4468C89.0114 57.3566 89.989 54.6625 90 51.8684C90.0005 51.343 89.8645 50.8275 89.6067 50.3776L82.157 37.3108ZM84.456 52.595C84.2863 53.9926 83.6388 55.2774 82.6347 56.2091C81.6306 57.1409 80.3386 57.6559 79 57.6579C75.9667 57.6579 73.5 55.0613 73.5 51.8684C73.5 51.6716 73.4313 51.4979 73.3927 51.3126L73.4478 51.3011L71.355 40.2895H77.4435L84.456 52.595ZM59.2523 40.2895H65.745L67.9808 52.0566C67.8845 55.1597 65.47 57.6579 62.5 57.6579C59.53 57.6579 57.1155 55.1597 57.0193 52.0566L59.2523 40.2895ZM47.5565 40.2895H53.645L51.555 51.3011L51.61 51.3126C51.5688 51.4979 51.5 51.6716 51.5 51.8684C51.5 55.0613 49.0332 57.6579 46 57.6579C44.6614 57.6559 43.3694 57.1409 42.3653 56.2091C41.3612 55.2774 40.7137 53.9926 40.544 52.595L47.5565 40.2895ZM57 83.7105V75.0263H68V83.7105H57ZM73.5 83.7105V75.0263C73.5 71.8334 71.0332 69.2368 68 69.2368H57C53.9668 69.2368 51.5 71.8334 51.5 75.0263V83.7105H43.25V63.0363C44.1328 63.2766 45.043 63.4474 46 63.4474C47.5615 63.4482 49.1052 63.0983 50.5279 62.4209C51.9506 61.7434 53.2196 60.7542 54.25 59.5192C56.2657 61.9276 59.2192 63.4474 62.5 63.4474C65.7808 63.4474 68.7342 61.9276 70.75 59.5192C71.7804 60.7542 73.0494 61.7434 74.4721 62.4209C75.8948 63.0983 77.4385 63.4482 79 63.4474C79.957 63.4474 80.8672 63.2766 81.75 63.0363V83.7105H73.5Z" fill="white"/>
</svg>
