<svg width="124" height="124" viewBox="0 0 124 124" fill="none" xmlns="http://www.w3.org/2000/svg">
<rect width="124" height="124" rx="62" fill="#121212"/>
<path d="M80.9056 49.5C81.0399 48.7339 81.0048 47.9476 80.8029 47.1964C80.601 46.4453 80.2371 45.7474 79.7368 45.1518C79.2365 44.5562 78.6119 44.0773 77.9069 43.7488C77.2019 43.4203 76.4335 43.25 75.6556 43.25H48.3456C47.5678 43.25 46.7994 43.4203 46.0943 43.7488C45.3893 44.0773 44.7647 44.5562 44.2644 45.1518C43.7641 45.7474 43.4002 46.4453 43.1983 47.1964C42.9964 47.9476 42.9614 48.7339 43.0956 49.5M75.7506 43.25C75.8206 42.6 75.8581 42.2775 75.8581 42.01C75.8608 40.7742 75.4058 39.5813 74.5808 38.6612C73.7558 37.7411 72.6194 37.1591 71.3906 37.0275C71.1256 37 70.8006 37 70.1506 37H53.8506C53.2006 37 52.8731 37 52.6081 37.0275C51.3794 37.1591 50.2429 37.7411 49.4179 38.6612C48.5929 39.5813 48.1379 40.7742 48.1406 42.01C48.1406 42.2775 48.1756 42.6025 48.2481 43.25M68.4531 66.04C69.8506 66.905 69.8506 69.145 68.4531 70.01L60.0256 75.235C58.6681 76.0775 57.0006 74.985 57.0006 73.25V62.8C57.0006 61.0675 58.6681 59.975 60.0256 60.815L68.4531 66.04Z" stroke="white" stroke-width="5"/>
<path d="M37.9606 66.4825C36.8431 58.5725 36.2856 54.62 38.6556 52.0575C41.0256 49.5 45.2456 49.5 53.6806 49.5H70.3206C78.7556 49.5 82.9756 49.5 85.3456 52.06C87.7156 54.62 87.1556 58.5725 86.0406 66.4825L84.9856 73.9825C84.1106 80.1825 83.6731 83.285 81.4306 85.1425C79.1881 87 75.8806 87 69.2631 87H54.7381C48.1231 87 44.8131 87 42.5706 85.1425C40.3281 83.285 39.8906 80.185 39.0156 73.9825L37.9606 66.4825Z" stroke="white" stroke-width="5"/>
</svg>
