<svg width="124" height="124" viewBox="0 0 124 124" fill="none" xmlns="http://www.w3.org/2000/svg">
<rect width="124" height="124" rx="62" fill="#121212"/>
<path d="M77.2778 58.9444C74.0362 58.9444 70.9275 57.6567 68.6354 55.3646C66.3433 53.0725 65.0556 49.9638 65.0556 46.7222C65.0556 43.4807 66.3433 40.3719 68.6354 38.0798C70.9275 35.7877 74.0362 34.5 77.2778 34.5C80.5193 34.5 83.6281 35.7877 85.9202 38.0798C88.2123 40.3719 89.5 43.4807 89.5 46.7222C89.5 49.9638 88.2123 53.0725 85.9202 55.3646C83.6281 57.6567 80.5193 58.9444 77.2778 58.9444ZM40.6111 40.6111H58.9444V46.7222H40.6111V83.3889H77.2778V65.0556H83.3889V83.3889C83.3889 85.0097 82.745 86.564 81.599 87.7101C80.4529 88.8562 78.8985 89.5 77.2778 89.5H40.6111C38.9903 89.5 37.436 88.8562 36.2899 87.7101C35.1438 86.564 34.5 85.0097 34.5 83.3889V46.7222C34.5 45.1015 35.1438 43.5471 36.2899 42.401C37.436 41.255 38.9903 40.6111 40.6111 40.6111Z" fill="white"/>
</svg>
