<svg width="124" height="124" viewBox="0 0 124 124" fill="none" xmlns="http://www.w3.org/2000/svg">
<rect width="124" height="124" rx="62" fill="#121212"/>
<path d="M73.7778 87V78.1635H64.9444V72.2725H73.7778V63.4359H79.6667V72.2725H88.5V78.1635H79.6667V87H73.7778ZM35.5 78.2371V72.3461H41.3889V78.2371H35.5ZM47.2778 78.2371V72.3461H59.2764C59.1292 73.377 59.0683 74.3589 59.0938 75.2916C59.1194 76.2243 59.2047 77.2062 59.35 78.2371H47.2778ZM35.5 66.4551V60.5641H41.3889V66.4551H35.5ZM47.2778 66.4551V60.5641H66.8583C65.7296 61.3495 64.7118 62.2332 63.8049 63.215C62.8981 64.1969 62.1001 65.2769 61.4111 66.4551H47.2778ZM35.5 54.673V48.782H41.3889V54.673H35.5ZM47.2778 54.673V48.782H82.6111V54.673H47.2778ZM35.5 42.891V37H41.3889V42.891H35.5ZM47.2778 42.891V37H82.6111V42.891H47.2778Z" fill="white"/>
</svg>
