<svg width="125" height="124" viewBox="0 0 125 124" fill="none" xmlns="http://www.w3.org/2000/svg">
<rect x="0.5" width="124" height="124" rx="62" fill="#121212"/>
<path d="M37.75 41.375V82.6053" stroke="white" stroke-width="3" stroke-linecap="round"/>
<path d="M87.25 53.75V82.625" stroke="white" stroke-width="3" stroke-linecap="round" stroke-linejoin="round"/>
<path d="M46 33.125H66.625" stroke="white" stroke-width="3" stroke-linecap="round" stroke-linejoin="round"/>
<path d="M46 90.875H79" stroke="white" stroke-width="3" stroke-linecap="round"/>
<path d="M87.25 82.625C87.2725 86.7453 83.125 90.875 79 90.875" stroke="white" stroke-width="3" stroke-linecap="round" stroke-linejoin="round"/>
<path d="M37.75 82.625C37.75 86.75 41.875 90.875 46 90.875" stroke="white" stroke-width="3" stroke-linecap="round" stroke-linejoin="round"/>
<path d="M37.75 41.369C37.75 37.25 41.875 33.2169 46 33.125" stroke="white" stroke-width="3" stroke-linecap="round" stroke-linejoin="round"/>
<path d="M87.2275 53.7685L66.625 33.125" stroke="white" stroke-width="3" stroke-linecap="round" stroke-linejoin="round"/>
<path d="M66.625 45.5C66.6377 49.6026 70.7666 53.75 74.875 53.75" stroke="white" stroke-width="3" stroke-linecap="round" stroke-linejoin="round"/>
<path d="M66.625 45.5V33.125" stroke="white" stroke-width="3" stroke-linecap="round" stroke-linejoin="round"/>
<path d="M74.875 53.75H87.25" stroke="white" stroke-width="3" stroke-linecap="round" stroke-linejoin="round"/>
<path d="M46 82.625H58.375" stroke="white" stroke-width="3" stroke-linecap="round" stroke-linejoin="round"/>
<path d="M46 74.375H66.625" stroke="white" stroke-width="3" stroke-linecap="round" stroke-linejoin="round"/>
<path d="M46 66.125H58.375" stroke="white" stroke-width="3" stroke-linecap="round" stroke-linejoin="round"/>
</svg>
