<svg width="125" height="124" viewBox="0 0 125 124" fill="none" xmlns="http://www.w3.org/2000/svg">
<rect x="0.5" width="124" height="124" rx="62" fill="#121212"/>
<path d="M71.8004 71.3016C71.8004 72.5349 72.2903 73.7177 73.1624 74.5897C74.0345 75.4618 75.2173 75.9517 76.4506 75.9517C77.6839 75.9517 78.8667 75.4618 79.7388 74.5897C80.6109 73.7177 81.1008 72.5349 81.1008 71.3016C81.1008 70.0683 80.6109 68.8855 79.7388 68.0134C78.8667 67.1413 77.6839 66.6514 76.4506 66.6514C75.2173 66.6514 74.0345 67.1413 73.1624 68.0134C72.2903 68.8855 71.8004 70.0683 71.8004 71.3016Z" stroke="white" stroke-width="5" stroke-linecap="round" stroke-linejoin="round"/>
<path d="M71.8128 48.9899C54.9853 47.8212 41.1215 45.3225 34.5989 43.4004V71.4906C34.5989 77.6754 34.5989 80.7662 36.521 83.2866C38.443 85.807 41.0781 86.5201 46.3484 87.9461C54.8613 90.2464 63.8145 91.6167 71.8314 92.3979C80.1459 93.2101 84.3001 93.6162 87.3506 90.8292C90.4012 88.0453 90.4012 83.5656 90.4012 74.6125V68.3688C90.4012 59.673 90.4012 55.3266 87.8994 52.6295C85.3976 49.9324 80.8714 49.6161 71.8128 48.9899Z" stroke="white" stroke-width="5" stroke-linecap="round" stroke-linejoin="round"/>
<path d="M79.9413 49.6006C81.1101 45.1891 82.1734 37.1628 79.0144 33.1792C77.0148 30.6526 74.0387 30.8975 71.1246 31.1517C55.7975 32.5003 44.9688 35.2377 38.9174 37.0977C36.3132 37.8976 34.5989 40.4397 34.5989 43.2763" stroke="white" stroke-width="5" stroke-linecap="round" stroke-linejoin="round"/>
</svg>
