<svg width="125" height="124" viewBox="0 0 125 124" fill="none" xmlns="http://www.w3.org/2000/svg">
<rect x="0.5" width="124" height="124" rx="62" fill="#121212"/>
<path d="M95.2072 53.9951C94.8545 52.9019 94.1868 51.9383 93.2886 51.2264C92.3904 50.5145 91.302 50.0862 90.1614 49.9957L74.0651 48.6902L67.8531 33.6041C67.4165 32.5379 66.6743 31.626 65.7207 30.9843C64.767 30.3426 63.645 30 62.4971 30C61.3493 30 60.2273 30.3426 59.2736 30.9843C58.32 31.626 57.5778 32.5379 57.1412 33.6041L50.9348 48.6931L34.8386 49.9957C33.6958 50.0904 32.6064 50.5222 31.7072 51.2368C30.808 51.9515 30.1392 52.9171 29.7848 54.0124C29.4304 55.1076 29.4062 56.2837 29.7153 57.3927C30.0244 58.5017 30.653 59.4942 31.5221 60.2455L43.804 70.8837L40.0495 86.7954C39.7756 87.9172 39.8404 89.0956 40.2356 90.1803C40.6307 91.265 41.3384 92.2071 42.2684 92.8866C43.1984 93.5661 44.3088 93.9522 45.458 93.9958C46.6073 94.0395 47.7435 93.7386 48.7219 93.1315L62.4971 84.6158L76.2724 93.1315C77.2505 93.7345 78.3848 94.0325 79.5317 93.9876C80.6786 93.9428 81.7864 93.5573 82.715 92.8798C83.6435 92.2023 84.3511 91.2633 84.748 90.1818C85.145 89.1002 85.2134 87.9247 84.9448 86.804L81.1903 70.8923L93.4722 60.2541C94.3465 59.5009 94.9782 58.5039 95.2871 57.3895C95.596 56.2751 95.5682 55.0936 95.2072 53.9951ZM75.1631 67.0501C74.6895 67.4601 74.3371 67.993 74.1445 68.5905C73.9519 69.1879 73.9264 69.8271 74.0708 70.4381L77.7372 85.9898L64.2862 77.6826C63.7482 77.35 63.1289 77.174 62.4971 77.174C61.8654 77.174 61.2461 77.35 60.708 77.6826L47.2571 85.9898L50.9235 70.4495C51.0679 69.8385 51.0424 69.1994 50.8498 68.6019C50.6572 68.0044 50.3048 67.4716 49.8312 67.0615L37.8081 56.6346L53.5659 55.3577C54.1929 55.3071 54.7939 55.0834 55.3024 54.7114C55.8108 54.3394 56.207 53.8334 56.4472 53.2495L62.4971 38.5376L68.5471 53.2495C68.7873 53.8334 69.1835 54.3394 69.6919 54.7114C70.2004 55.0834 70.8013 55.3071 71.4284 55.3577L87.1862 56.6346L75.1631 67.0501Z" fill="#FEFEFE"/>
</svg>
